<?xml version="1.0" encoding="UTF-8"?><svg xmlns="http://www.w3.org/2000/svg" viewBox="0 0 840.17 369.25"><defs><style>.d{fill:#ee7b1c;}</style></defs><g id="a"/><g id="b"><g id="c"><g><path d="M79.74,142.67c-.88,1.9-3.59,1.91-4.48,.01L41.16,70.3c-.27-.61-.57-1.37-.93-2.28-.34-.89-.69-1.82-1.03-2.8,.07,.84,.12,1.75,.15,2.75,.03,1.01,.05,1.85,.05,2.55v71.97c0,1.37-1.11,2.47-2.47,2.47H12.05c-1.37,0-2.47-1.11-2.47-2.47V2.47c0-1.37,1.11-2.47,2.47-2.47h25.97c.97,0,1.85,.57,2.25,1.45l34.35,75.69c.76,1.52,1.42,2.98,1.97,4.4,.54,1.42,1.06,2.92,1.55,4.5,.56-1.58,1.1-3.12,1.65-4.6,.56-1.48,1.15-2.92,1.77-4.3L116.83,1.43c.41-.87,1.28-1.43,2.24-1.43h23.69c1.37,0,2.47,1.11,2.47,2.47V142.49c0,1.37-1.11,2.47-2.47,2.47h-24.77c-1.37,0-2.47-1.11-2.47-2.47V67.57c0-1.01,.03-1.82,.1-2.44-.35,.83-.71,1.7-1.1,2.6-.37,.89-.74,1.69-1.08,2.38l-33.71,72.57Z"/><path d="M150.58,141.6L205.18,1.58c.37-.95,1.29-1.58,2.31-1.58h25c1.02,0,1.93,.62,2.31,1.57l54.7,140.02c.63,1.62-.56,3.38-2.31,3.38h-27.08c-1.03,0-1.95-.63-2.31-1.59l-9.86-25.9c-.37-.96-1.29-1.59-2.31-1.59h-51.36c-1.03,0-1.96,.64-2.32,1.61l-9.67,25.87c-.36,.97-1.29,1.61-2.32,1.61h-27.07c-1.74,0-2.94-1.75-2.31-3.37Zm55.53-53.16h27.56c1.74,0,2.94-1.75,2.31-3.37l-11.84-30.49c-.42-1.05-.91-2.24-1.45-3.57-.56-1.35-1.08-2.71-1.55-4.1-.49-1.38-.91-2.63-1.25-3.72-.35,1.1-.76,2.34-1.25,3.72-.49,1.38-.99,2.75-1.55,4.1-.56,1.33-1.03,2.53-1.45,3.57l-11.84,30.49c-.63,1.62,.57,3.37,2.31,3.37Z"/><path d="M294.88,142.49V2.47c0-1.37,1.11-2.47,2.47-2.47h23.56c.81,0,1.58,.4,2.04,1.07l54.06,78.35c.69,1.11,1.69,2.76,3,4.97s2.31,4.15,3,5.8c-.2-1.45-.35-3.32-.47-5.65-.1-2.31-.15-4.05-.15-5.23V2.47c0-1.37,1.11-2.47,2.47-2.47h24.66c1.37,0,2.47,1.11,2.47,2.47V142.49c0,1.37-1.11,2.47-2.47,2.47h-22.43c-.81,0-1.57-.39-2.03-1.06l-55.19-78.99c-.76-1.11-1.77-2.8-3.05-5.07-1.28-2.28-2.29-4.25-3.05-5.9,.27,1.79,.42,3.71,.46,5.75,.03,2.04,.05,3.78,.05,5.23v77.57c0,1.37-1.11,2.47-2.47,2.47h-24.46c-1.37,0-2.47-1.11-2.47-2.47Z"/><path d="M487.19,147.46c-12.29,0-22.89-2.28-31.81-6.84-8.9-4.55-15.73-11.16-20.5-19.82-4.77-8.66-7.15-19.15-7.15-31.43V2.47c0-1.37,1.11-2.47,2.47-2.47h24.87c1.37,0,2.47,1.11,2.47,2.47V89.37c0,10.5,2.38,18,7.1,22.52,4.74,4.53,12.24,6.79,22.54,6.79,6.49,0,11.92-.94,16.3-2.8,4.38-1.87,7.69-4.96,9.89-9.27,2.21-4.31,3.32-10.06,3.32-17.24V2.47c0-1.37,1.11-2.47,2.47-2.47h24.87c1.37,0,2.47,1.11,2.47,2.47V89.37c0,10.57-1.63,19.53-4.92,26.92-3.27,7.4-7.7,13.38-13.3,17.97-5.6,4.6-11.93,7.94-19.01,10.05-7.06,2.11-14.44,3.17-22.1,3.17Z"/><path d="M562.27,142.49V2.47c0-1.37,1.11-2.47,2.47-2.47h96.96c1.37,0,2.47,1.11,2.47,2.47V25.79c0,1.37-1.11,2.47-2.47,2.47h-67.12c-1.37,0-2.47,1.11-2.47,2.47v22.81c0,1.37,1.11,2.47,2.47,2.47h67.13c1.37,0,2.47,1.11,2.47,2.47v23.32c0,1.37-1.11,2.47-2.47,2.47h-67.13c-1.37,0-2.47,1.11-2.47,2.47v27.26c0,1.37,1.11,2.47,2.47,2.47h71.37c1.37,0,2.47,1.11,2.47,2.47v23.52c0,1.37-1.11,2.47-2.47,2.47h-101.2c-1.37,0-2.47-1.11-2.47-2.47Z"/><path d="M677.2,142.49V2.47c0-1.37,1.11-2.47,2.47-2.47h24.88c1.37,0,2.47,1.11,2.47,2.47V113.71c0,1.37,1.11,2.47,2.47,2.47h64.75c1.37,0,2.47,1.11,2.47,2.47v23.84c0,1.37-1.11,2.47-2.47,2.47h-94.58c-1.37,0-2.47-1.11-2.47-2.47Z"/><path d="M61.1,309.62c-11.39,0-20.98-2.17-28.79-6.52-7.8-4.35-14.09-10.13-18.84-17.34-4.77-7.21-8.21-15.22-10.32-24.02-2.11-8.82-3.15-17.73-3.15-26.78,0-8.41,1.08-17.01,3.27-25.77,2.17-8.78,5.63-16.89,10.4-24.34,4.77-7.47,11.04-13.47,18.84-18.02,7.8-4.57,17.33-6.84,28.59-6.84,9.19,0,17.26,1.62,24.24,4.87,6.96,3.25,12.78,7.43,17.44,12.57,4.65,5.16,8.16,10.58,10.52,16.32l-26.51,12.02c-2.43-3.59-4.84-6.66-7.25-9.22-2.43-2.55-5.12-4.52-8.09-5.9-2.97-1.38-6.42-2.07-10.35-2.07-5.73,0-10.53,1.42-14.39,4.25-3.88,2.83-6.96,6.56-9.27,11.17-2.31,4.64-3.99,9.66-5.02,15.07-1.03,5.43-1.55,10.72-1.55,15.89s.59,10.82,1.75,16.27c1.18,5.46,2.97,10.43,5.39,14.92,2.41,4.48,5.55,8.09,9.37,10.82,3.83,2.73,8.39,4.1,13.72,4.1s10.32-1.75,14.39-5.24c4.08-3.49,7.77-7.96,11.07-13.4l27.14,10.25c-3.32,7.11-7.38,13.47-12.22,19.05-4.84,5.6-10.58,9.98-17.24,13.16-6.66,3.17-14.38,4.75-23.14,4.75Z"/><path d="M108.82,304.07l54.6-140.02c.37-.95,1.29-1.58,2.31-1.58h25c1.02,0,1.93,.62,2.31,1.57l54.7,140.02c.63,1.62-.56,3.38-2.31,3.38h-27.08c-1.03,0-1.95-.63-2.31-1.59l-9.86-25.9c-.37-.96-1.29-1.59-2.31-1.59h-51.36c-1.03,0-1.96,.64-2.32,1.61l-9.67,25.87c-.36,.97-1.29,1.61-2.32,1.61h-27.07c-1.74,0-2.94-1.75-2.31-3.37Zm55.53-53.16h27.56c1.74,0,2.94-1.75,2.31-3.37l-11.84-30.49c-.42-1.05-.91-2.24-1.45-3.57-.56-1.35-1.08-2.71-1.55-4.1-.49-1.38-.91-2.63-1.25-3.72-.35,1.1-.76,2.34-1.25,3.72-.49,1.38-.99,2.75-1.55,4.1-.56,1.33-1.03,2.53-1.45,3.57l-11.84,30.49c-.63,1.62,.57,3.37,2.31,3.37Z"/><path d="M297.73,309.94c-9.24,0-17.66-1.67-25.27-4.97-7.58-3.32-14.09-8.04-19.52-14.19-5.41-6.14-9.54-13.47-12.37-21.95l24.72-9.3c1.15-.43,2.39,.11,2.95,1.19,3.06,5.89,7.06,10.78,11.99,14.68,5.46,4.31,11.53,6.47,18.22,6.47s12.44-1.38,16.57-4.15c4.15-2.76,6.22-6.76,6.22-12.02,0-3.59-1.21-6.56-3.62-8.9-2.41-2.34-5.73-4.4-9.94-6.17-4.21-1.75-9.03-3.54-14.5-5.33-5.38-1.8-10.84-3.78-16.37-5.95-5.51-2.17-10.58-4.89-15.22-8.14-4.62-3.24-8.33-7.37-11.12-12.37-2.8-5.01-4.2-11.19-4.2-18.59s1.96-14.02,5.85-20.14c3.89-6.1,9.56-10.99,16.99-14.65,7.42-3.66,16.4-5.49,26.97-5.49,8.7,0,16.43,1.53,23.19,4.62,6.78,3.07,12.37,7.23,16.79,12.47,4.42,5.24,7.52,11.14,9.32,17.71l-26.51,8.8c-2.01-4.42-4.89-8.11-8.65-11.09-3.78-2.97-9-4.45-15.69-4.45-5.93,0-10.52,1.1-13.72,3.27-3.22,2.17-4.82,5.33-4.82,9.47,0,2.7,1.1,4.99,3.27,6.89,2.17,1.89,5.17,3.61,9,5.12,3.84,1.52,8.24,3.14,13.21,4.85,5.93,2.01,11.83,4.21,17.7,6.64,5.87,2.41,11.21,5.38,16,8.9,4.8,3.52,8.63,7.9,11.5,13.15,2.87,5.26,4.3,11.75,4.3,19.47,0,9.32-2.34,17.26-7.03,23.82-4.7,6.57-11.07,11.6-19.11,15.07-8.04,3.49-17.07,5.24-27.09,5.24Z"/><path d="M389.08,304.97v-111.45c0-1.37-1.11-2.47-2.47-2.47h-36.48c-1.37,0-2.47-1.11-2.47-2.47v-23.62c0-1.37,1.11-2.47,2.47-2.47h107.83c1.37,0,2.47,1.11,2.47,2.47v23.62c0,1.37-1.11,2.47-2.47,2.47h-36.58c-1.37,0-2.47,1.11-2.47,2.47v111.45c0,1.37-1.11,2.47-2.47,2.47h-24.87c-1.37,0-2.47-1.11-2.47-2.47Z"/><path d="M467.34,304.97V164.95c0-1.37,1.11-2.47,2.47-2.47h24.88c1.37,0,2.47,1.11,2.47,2.47v140.02c0,1.37-1.11,2.47-2.47,2.47h-24.88c-1.37,0-2.47-1.11-2.47-2.47Z"/><path d="M513.64,304.97V164.95c0-1.37,1.11-2.47,2.47-2.47h24.88c1.37,0,2.47,1.11,2.47,2.47v111.23c0,1.37,1.11,2.47,2.47,2.47h64.75c1.37,0,2.47,1.11,2.47,2.47v23.84c0,1.37-1.11,2.47-2.47,2.47h-94.58c-1.37,0-2.47-1.11-2.47-2.47Z"/><path d="M615.85,304.97V164.95c0-1.37,1.11-2.47,2.47-2.47h24.88c1.37,0,2.47,1.11,2.47,2.47v111.23c0,1.37,1.11,2.47,2.47,2.47h64.75c1.37,0,2.47,1.11,2.47,2.47v23.84c0,1.37-1.11,2.47-2.47,2.47h-94.58c-1.37,0-2.47-1.11-2.47-2.47Z"/><path d="M776.49,309.94c-11.6,0-21.47-2.19-29.63-6.57-8.14-4.4-14.71-10.23-19.72-17.51-5.01-7.28-8.66-15.34-10.97-24.17-2.31-8.85-3.47-17.75-3.47-26.73s1.16-17.87,3.47-26.72c2.31-8.83,5.97-16.89,10.97-24.17,5.01-7.28,11.58-13.13,19.72-17.51,8.16-4.38,18.03-6.57,29.63-6.57s21.64,2.19,29.72,6.57c8.07,4.38,14.61,10.23,19.62,17.51,5.01,7.28,8.65,15.34,10.92,24.17,2.29,8.85,3.42,17.75,3.42,26.72s-1.13,17.88-3.42,26.73c-2.28,8.83-5.92,16.89-10.92,24.17-5.01,7.28-11.55,13.11-19.62,17.51-8.07,4.38-17.98,6.57-29.72,6.57Zm0-28.79c6.07,0,11.19-1.42,15.37-4.25,4.18-2.83,7.55-6.57,10.1-11.24,2.56-4.65,4.42-9.67,5.6-15.07,1.16-5.38,1.75-10.6,1.75-15.64,0-5.38-.56-10.8-1.65-16.25-1.11-5.46-2.92-10.47-5.44-15.02-2.51-4.55-5.88-8.21-10.1-10.97-4.2-2.76-9.42-4.15-15.62-4.15s-11.43,1.43-15.64,4.3c-4.21,2.87-7.6,6.61-10.15,11.24-2.56,4.62-4.38,9.66-5.49,15.12-1.1,5.44-1.65,10.7-1.65,15.73,0,5.33,.57,10.69,1.7,16.11,1.15,5.41,3,10.4,5.6,14.97,2.6,4.55,5.98,8.21,10.2,10.97,4.21,2.76,9.35,4.15,15.44,4.15Z"/><rect class="d" x="782.88" y="116.84" width="27.45" height="27.45" rx=".07" ry=".07"/><g><path d="M10.08,332.11h5.27v36.76h-5.27v-36.76Zm2.68,17.49h11.75c1.1,0,2.07-.26,2.9-.77s1.47-1.24,1.93-2.19c.46-.94,.69-2.03,.69-3.26s-.23-2.34-.69-3.28c-.46-.95-1.1-1.68-1.93-2.2-.83-.52-1.8-.78-2.9-.78H12.77v-5h11.58c2.19,0,4.12,.46,5.8,1.4s2.97,2.26,3.89,3.96c.91,1.7,1.37,3.68,1.37,5.92s-.46,4.21-1.37,5.9c-.93,1.7-2.22,3-3.89,3.93-1.68,.93-3.61,1.39-5.8,1.39H12.77v-5.01Z"/><path d="M48.13,332.09h5.27v36.79h-5.27v-36.79Zm2.27,16.28h12.57c.96,0,1.8-.23,2.55-.69,.74-.47,1.32-1.12,1.74-1.99,.41-.86,.62-1.84,.62-2.96s-.21-2.1-.62-2.96c-.41-.86-.98-1.52-1.72-1.98-.73-.47-1.59-.7-2.56-.7h-12.57v-5.01h12.39c2.12,0,3.99,.44,5.58,1.31,1.61,.88,2.84,2.12,3.73,3.75,.88,1.62,1.32,3.48,1.32,5.58s-.45,3.96-1.34,5.57-2.15,2.86-3.75,3.75-3.45,1.32-5.56,1.32h-12.39v-5.01Zm9.89,3.87l5.25-1.16,9.43,17.8h-6.25l-8.44-16.63Z"/><path d="M92.58,367.57c-1.96-1.12-3.48-2.71-4.56-4.75-1.06-2.05-1.6-4.42-1.6-7.12v-10.42c0-2.7,.54-5.07,1.6-7.12,1.07-2.05,2.59-3.63,4.56-4.75,1.96-1.12,4.23-1.68,6.78-1.68s4.83,.56,6.8,1.68c1.96,1.12,3.47,2.7,4.55,4.75s1.61,4.42,1.61,7.12v10.42c0,2.7-.54,5.07-1.61,7.12-1.07,2.04-2.58,3.63-4.55,4.75-1.96,1.12-4.23,1.68-6.8,1.68s-4.82-.56-6.78-1.68Zm10.76-4.51c1.14-.67,2.03-1.63,2.65-2.87,.63-1.24,.94-2.67,.94-4.31v-10.77c0-1.63-.31-3.07-.94-4.31-.62-1.24-1.51-2.19-2.65-2.87-1.15-.67-2.47-1.01-3.97-1.01s-2.82,.34-3.96,1.01c-1.15,.67-2.03,1.63-2.66,2.87-.62,1.24-.94,2.68-.94,4.31v10.77c0,1.64,.32,3.07,.94,4.31,.63,1.24,1.51,2.2,2.66,2.87,1.14,.67,2.47,1.01,3.96,1.01s2.82-.34,3.97-1.01Z"/><path d="M151.1,349.03v6.47c0,2.73-.53,5.13-1.59,7.22-1.06,2.08-2.57,3.69-4.53,4.83-1.95,1.14-4.21,1.7-6.77,1.7s-4.88-.53-6.85-1.6c-1.96-1.07-3.49-2.58-4.57-4.53-1.08-1.96-1.62-4.23-1.62-6.8v-10.85c0-2.73,.53-5.13,1.59-7.21s2.57-3.68,4.53-4.81c1.95-1.14,4.2-1.71,6.77-1.71,2.1,0,4.05,.45,5.84,1.35,1.79,.9,3.28,2.18,4.48,3.83s2.01,3.56,2.43,5.74h-5.7c-.3-1.22-.81-2.26-1.52-3.12-.72-.87-1.56-1.53-2.54-1.99-.97-.45-1.96-.68-2.99-.68-1.51,0-2.82,.36-3.96,1.07-1.13,.72-2.01,1.72-2.63,3.01s-.93,2.79-.93,4.51v10.85c0,1.56,.32,2.94,.95,4.11,.64,1.17,1.53,2.08,2.7,2.73,1.16,.65,2.5,.98,4.02,.98s2.82-.34,3.96-1.01c1.13-.67,2.01-1.66,2.63-2.94s.93-2.8,.93-4.57v-1.54h-7.37v-5.03h12.75Z"/><path d="M165.19,332.09h5.27v36.79h-5.27v-36.79Zm2.27,16.28h12.57c.96,0,1.8-.23,2.55-.69,.74-.47,1.32-1.12,1.74-1.99,.41-.86,.62-1.84,.62-2.96s-.21-2.1-.62-2.96c-.41-.86-.98-1.52-1.72-1.98-.73-.47-1.59-.7-2.56-.7h-12.57v-5.01h12.39c2.12,0,3.99,.44,5.58,1.31,1.61,.88,2.84,2.12,3.73,3.75,.88,1.62,1.32,3.48,1.32,5.58s-.45,3.96-1.34,5.57-2.15,2.86-3.75,3.75-3.45,1.32-5.56,1.32h-12.39v-5.01Zm9.89,3.87l5.25-1.16,9.43,17.8h-6.25l-8.44-16.63Z"/><path d="M214.05,332.11h4.4l13.58,36.76h-5.66l-10.11-29.43-10.12,29.43h-5.66l13.58-36.76Zm-7.31,23.81h19.35v4.98h-19.35v-4.98Z"/><path d="M270.09,332.11h5.06v36.76h-5.11v-27.58l.25,1.62-8.93,20.91h-3.73l-8.93-20.4,.25-2.12v27.58h-5.11v-36.76h5.06l10.6,24.29,10.59-24.29Z"/><path d="M300.04,332.11h4.4l13.58,36.76h-5.66l-10.11-29.43-10.12,29.43h-5.66l13.58-36.76Zm-7.31,23.81h19.35v4.98h-19.35v-4.98Z"/><path d="M329.83,332.11h5.27v36.76h-5.27v-36.76Zm3.49,31.75h8.34c2.7,0,4.79-.69,6.26-2.08,1.47-1.39,2.22-3.35,2.22-5.88v-10.82c0-2.53-.74-4.49-2.22-5.88-1.47-1.39-3.56-2.08-6.26-2.08h-8.34v-5h8.19c2.95,0,5.47,.51,7.57,1.54s3.7,2.52,4.79,4.5c1.1,1.97,1.64,4.35,1.64,7.13v10.42c0,2.78-.55,5.16-1.64,7.13-1.08,1.97-2.68,3.47-4.79,4.5s-4.64,1.54-7.59,1.54h-8.17v-5.01Z"/><path d="M374.52,367.57c-1.96-1.12-3.48-2.71-4.56-4.75-1.06-2.05-1.6-4.42-1.6-7.12v-10.42c0-2.7,.54-5.07,1.6-7.12,1.07-2.05,2.59-3.63,4.56-4.75,1.96-1.12,4.23-1.68,6.78-1.68s4.83,.56,6.8,1.68c1.96,1.12,3.47,2.7,4.55,4.75s1.61,4.42,1.61,7.12v10.42c0,2.7-.54,5.07-1.61,7.12-1.07,2.04-2.58,3.63-4.55,4.75s-4.23,1.68-6.8,1.68-4.82-.56-6.78-1.68Zm10.76-4.51c1.14-.67,2.03-1.63,2.65-2.87,.63-1.24,.94-2.67,.94-4.31v-10.77c0-1.63-.31-3.07-.94-4.31-.62-1.24-1.51-2.19-2.65-2.87-1.15-.67-2.47-1.01-3.97-1.01s-2.82,.34-3.96,1.01c-1.15,.67-2.03,1.63-2.66,2.87-.62,1.24-.94,2.68-.94,4.31v10.77c0,1.64,.32,3.07,.94,4.31,.63,1.24,1.51,2.2,2.66,2.87,1.14,.67,2.47,1.01,3.96,1.01s2.82-.34,3.97-1.01Z"/><path d="M408.35,332.09h5.27v36.79h-5.27v-36.79Zm2.27,16.28h12.57c.96,0,1.8-.23,2.55-.69,.74-.47,1.32-1.12,1.74-1.99,.41-.86,.62-1.84,.62-2.96s-.21-2.1-.62-2.96c-.41-.86-.98-1.52-1.72-1.98-.73-.47-1.59-.7-2.56-.7h-12.57v-5.01h12.39c2.12,0,3.99,.44,5.58,1.31,1.61,.88,2.84,2.12,3.73,3.75,.88,1.62,1.32,3.48,1.32,5.58s-.45,3.96-1.34,5.57-2.15,2.86-3.75,3.75-3.45,1.32-5.56,1.32h-12.39v-5.01Zm9.89,3.87l5.25-1.16,9.43,17.8h-6.25l-8.44-16.63Z"/><path d="M468.64,332.11h5.27v36.76h-5.27v-36.76Zm2.54,0h20.65v5h-20.65v-5Zm0,16.33h17.87v5h-17.87v-5Z"/><path d="M509.65,368.87h-5.25v-36.76h5.25v36.76Z"/><path d="M525,332.11h4.88l17.76,28.39-.62,.66v-29.05h5.19v36.74h-4.92l-17.7-27.96,.61-.66v28.62h-5.19v-36.74Z"/><path d="M577.11,332.11h4.4l13.58,36.76h-5.66l-10.11-29.43-10.12,29.43h-5.66l13.58-36.76Zm-7.31,23.81h19.35v4.98h-19.35v-4.98Z"/><path d="M606.91,332.11h4.88l17.76,28.39-.62,.66v-29.05h5.19v36.74h-4.92l-17.7-27.96,.61-.66v28.62h-5.19v-36.74Z"/><path d="M654.79,367.56c-1.93-1.13-3.43-2.73-4.49-4.79-1.06-2.07-1.59-4.47-1.59-7.22v-10.09c0-2.75,.53-5.15,1.59-7.22,1.06-2.06,2.56-3.67,4.49-4.8s4.18-1.71,6.74-1.71c2.12,0,4.08,.46,5.85,1.36,1.77,.91,3.24,2.2,4.43,3.85,1.19,1.66,2,3.6,2.41,5.81h-5.38c-.32-1.16-.86-2.19-1.6-3.09-.73-.89-1.6-1.58-2.6-2.07-.99-.49-2.02-.73-3.11-.73-1.48,0-2.79,.36-3.91,1.07-1.12,.72-1.99,1.72-2.6,3.01s-.93,2.79-.93,4.51v10.09c0,1.7,.31,3.2,.93,4.5s1.48,2.3,2.6,3.01,2.42,1.06,3.91,1.06c1.1,0,2.15-.23,3.14-.69s1.85-1.13,2.59-2.02c.73-.89,1.26-1.95,1.58-3.19h5.38c-.41,2.21-1.22,4.14-2.42,5.8s-2.68,2.95-4.45,3.85c-1.77,.91-3.7,1.36-5.81,1.36-2.56,0-4.81-.56-6.74-1.69Z"/><path d="M692.54,368.87h-5.25v-36.76h5.25v36.76Z"/><path d="M707.89,332.11h5.27v36.76h-5.27v-36.76Zm2.5,0h21.16v5h-21.16v-5Zm0,16h18.39v5.01h-18.39v-5.01Zm0,15.75h21.16v5.01h-21.16v-5.01Z"/><path d="M745.16,332.09h5.27v36.79h-5.27v-36.79Zm2.27,16.28h12.57c.96,0,1.8-.23,2.55-.69,.74-.47,1.32-1.12,1.74-1.99,.41-.86,.62-1.84,.62-2.96s-.21-2.1-.62-2.96c-.41-.86-.98-1.52-1.72-1.98-.73-.47-1.59-.7-2.56-.7h-12.57v-5.01h12.39c2.12,0,3.99,.44,5.58,1.31,1.61,.88,2.84,2.12,3.73,3.75,.88,1.62,1.32,3.48,1.32,5.58s-.45,3.96-1.34,5.57-2.15,2.86-3.75,3.75-3.45,1.32-5.56,1.32h-12.39v-5.01Zm9.89,3.87l5.25-1.16,9.43,17.8h-6.25l-8.44-16.63Z"/><path d="M789.62,367.57c-1.96-1.12-3.48-2.71-4.56-4.75-1.06-2.05-1.6-4.42-1.6-7.12v-10.42c0-2.7,.54-5.07,1.6-7.12,1.07-2.05,2.59-3.63,4.56-4.75,1.96-1.12,4.23-1.68,6.78-1.68s4.83,.56,6.8,1.68c1.96,1.12,3.47,2.7,4.55,4.75s1.61,4.42,1.61,7.12v10.42c0,2.7-.54,5.07-1.61,7.12-1.07,2.04-2.58,3.63-4.55,4.75-1.96,1.12-4.23,1.68-6.8,1.68s-4.82-.56-6.78-1.68Zm10.76-4.51c1.14-.67,2.03-1.63,2.65-2.87,.63-1.24,.94-2.67,.94-4.31v-10.77c0-1.63-.31-3.07-.94-4.31-.62-1.24-1.51-2.19-2.65-2.87-1.15-.67-2.47-1.01-3.97-1.01s-2.82,.34-3.96,1.01c-1.15,.67-2.03,1.63-2.66,2.87-.62,1.24-.94,2.68-.94,4.31v10.77c0,1.64,.32,3.07,.94,4.31,.63,1.24,1.51,2.2,2.66,2.87,1.14,.67,2.47,1.01,3.96,1.01s2.82-.34,3.97-1.01Z"/></g></g></g></g></svg>