<?xml version="1.0" encoding="UTF-8"?><svg xmlns="http://www.w3.org/2000/svg" viewBox="0 0 833.51 309.94"><defs><style>.d{fill:#ee7b1c;}</style></defs><g id="a"/><g id="b"><g id="c"><g><path d="M73.09,142.67c-.88,1.9-3.59,1.91-4.48,.01L34.5,70.3c-.27-.61-.57-1.37-.93-2.28-.34-.89-.69-1.82-1.03-2.8,.07,.84,.12,1.75,.15,2.75,.03,1.01,.05,1.85,.05,2.55v71.97c0,1.37-1.11,2.47-2.47,2.47H5.39c-1.37,0-2.47-1.11-2.47-2.47V2.47c0-1.37,1.11-2.47,2.47-2.47H31.36c.97,0,1.85,.57,2.25,1.45l34.35,75.69c.76,1.52,1.42,2.98,1.97,4.4,.54,1.42,1.06,2.92,1.55,4.5,.56-1.58,1.1-3.12,1.65-4.6s1.15-2.92,1.77-4.3L110.17,1.43c.41-.87,1.28-1.43,2.24-1.43h23.69c1.37,0,2.47,1.11,2.47,2.47V142.49c0,1.37-1.11,2.47-2.47,2.47h-24.77c-1.37,0-2.47-1.11-2.47-2.47V67.57c0-1.01,.03-1.82,.1-2.44-.35,.83-.71,1.7-1.1,2.6-.37,.89-.74,1.69-1.08,2.38l-33.71,72.57Z"/><path d="M143.93,141.6L198.53,1.58c.37-.95,1.29-1.58,2.31-1.58h25c1.02,0,1.93,.62,2.31,1.57l54.7,140.02c.63,1.62-.56,3.38-2.31,3.38h-27.08c-1.03,0-1.95-.63-2.31-1.59l-9.86-25.9c-.37-.96-1.29-1.59-2.31-1.59h-51.36c-1.03,0-1.96,.64-2.32,1.61l-9.67,25.87c-.36,.97-1.29,1.61-2.32,1.61h-27.07c-1.74,0-2.94-1.75-2.31-3.37Zm55.53-53.16h27.56c1.74,0,2.94-1.75,2.31-3.37l-11.84-30.49c-.42-1.05-.91-2.24-1.45-3.57-.56-1.35-1.08-2.71-1.55-4.1-.49-1.38-.91-2.63-1.25-3.72-.35,1.1-.76,2.34-1.25,3.72s-.99,2.75-1.55,4.1c-.56,1.33-1.03,2.53-1.45,3.57l-11.84,30.49c-.63,1.62,.57,3.37,2.31,3.37Z"/><path d="M288.22,142.49V2.47c0-1.37,1.11-2.47,2.47-2.47h23.56c.81,0,1.58,.4,2.04,1.07l54.06,78.35c.69,1.11,1.69,2.76,3,4.97s2.31,4.15,3,5.8c-.2-1.45-.35-3.32-.47-5.65-.1-2.31-.15-4.05-.15-5.23V2.47c0-1.37,1.11-2.47,2.47-2.47h24.66c1.37,0,2.47,1.11,2.47,2.47V142.49c0,1.37-1.11,2.47-2.47,2.47h-22.43c-.81,0-1.57-.39-2.03-1.06l-55.19-78.99c-.76-1.11-1.77-2.8-3.05-5.07-1.28-2.28-2.29-4.25-3.05-5.9,.27,1.79,.42,3.71,.46,5.75,.03,2.04,.05,3.78,.05,5.23v77.57c0,1.37-1.11,2.47-2.47,2.47h-24.46c-1.37,0-2.47-1.11-2.47-2.47Z"/><path d="M480.54,147.46c-12.29,0-22.89-2.28-31.81-6.84-8.9-4.55-15.73-11.16-20.5-19.82-4.77-8.66-7.15-19.15-7.15-31.43V2.47c0-1.37,1.11-2.47,2.47-2.47h24.87c1.37,0,2.47,1.11,2.47,2.47V89.37c0,10.5,2.38,18,7.1,22.52,4.74,4.53,12.24,6.79,22.54,6.79,6.49,0,11.92-.94,16.3-2.8,4.38-1.87,7.69-4.96,9.89-9.27,2.21-4.31,3.32-10.06,3.32-17.24V2.47c0-1.37,1.11-2.47,2.47-2.47h24.87c1.37,0,2.47,1.11,2.47,2.47V89.37c0,10.57-1.63,19.53-4.92,26.92-3.27,7.4-7.7,13.38-13.3,17.97-5.6,4.6-11.93,7.94-19.01,10.05-7.06,2.11-14.44,3.17-22.1,3.17Z"/><path d="M555.61,142.49V2.47c0-1.37,1.11-2.47,2.47-2.47h96.96c1.37,0,2.47,1.11,2.47,2.47V25.79c0,1.37-1.11,2.47-2.47,2.47h-67.12c-1.37,0-2.47,1.11-2.47,2.47v22.81c0,1.37,1.11,2.47,2.47,2.47h67.13c1.37,0,2.47,1.11,2.47,2.47v23.32c0,1.37-1.11,2.47-2.47,2.47h-67.13c-1.37,0-2.47,1.11-2.47,2.47v27.26c0,1.37,1.11,2.47,2.47,2.47h71.37c1.37,0,2.47,1.11,2.47,2.47v23.52c0,1.37-1.11,2.47-2.47,2.47h-101.2c-1.37,0-2.47-1.11-2.47-2.47Z"/><path d="M670.54,142.49V2.47c0-1.37,1.11-2.47,2.47-2.47h24.88c1.37,0,2.47,1.11,2.47,2.47V113.71c0,1.37,1.11,2.47,2.47,2.47h64.75c1.37,0,2.47,1.11,2.47,2.47v23.84c0,1.37-1.11,2.47-2.47,2.47h-94.58c-1.37,0-2.47-1.11-2.47-2.47Z"/><path d="M61.1,309.62c-11.39,0-20.98-2.17-28.79-6.52-7.8-4.35-14.09-10.13-18.84-17.34-4.77-7.21-8.21-15.22-10.32-24.02-2.11-8.82-3.15-17.73-3.15-26.78,0-8.41,1.08-17.01,3.27-25.77,2.17-8.78,5.63-16.89,10.4-24.34,4.77-7.47,11.04-13.47,18.84-18.02,7.8-4.57,17.33-6.84,28.59-6.84,9.19,0,17.26,1.62,24.24,4.87,6.96,3.25,12.78,7.43,17.44,12.57,4.65,5.16,8.16,10.58,10.52,16.32l-26.51,12.02c-2.43-3.59-4.84-6.66-7.25-9.22-2.43-2.55-5.12-4.52-8.09-5.9-2.97-1.38-6.42-2.07-10.35-2.07-5.73,0-10.53,1.42-14.39,4.25-3.88,2.83-6.96,6.56-9.27,11.17-2.31,4.64-3.99,9.66-5.02,15.07-1.03,5.43-1.55,10.72-1.55,15.89s.59,10.82,1.75,16.27c1.18,5.46,2.97,10.43,5.39,14.92,2.41,4.48,5.55,8.09,9.37,10.82,3.83,2.73,8.39,4.1,13.72,4.1s10.32-1.75,14.39-5.24c4.08-3.49,7.77-7.96,11.07-13.4l27.14,10.25c-3.32,7.11-7.38,13.47-12.22,19.05-4.84,5.6-10.58,9.98-17.24,13.16-6.66,3.17-14.38,4.75-23.14,4.75Z"/><path d="M102.16,304.07l54.6-140.02c.37-.95,1.29-1.58,2.31-1.58h25c1.02,0,1.93,.62,2.31,1.57l54.7,140.02c.63,1.62-.56,3.38-2.31,3.38h-27.08c-1.03,0-1.95-.63-2.31-1.59l-9.86-25.9c-.37-.96-1.29-1.59-2.31-1.59h-51.36c-1.03,0-1.96,.64-2.32,1.61l-9.67,25.87c-.36,.97-1.29,1.61-2.32,1.61h-27.07c-1.74,0-2.94-1.75-2.31-3.37Zm55.53-53.16h27.56c1.74,0,2.94-1.75,2.31-3.37l-11.84-30.49c-.42-1.05-.91-2.24-1.45-3.57-.56-1.35-1.08-2.71-1.55-4.1-.49-1.38-.91-2.63-1.25-3.72-.35,1.1-.76,2.34-1.25,3.72-.49,1.38-.99,2.75-1.55,4.1-.56,1.33-1.03,2.53-1.45,3.57l-11.84,30.49c-.63,1.62,.57,3.37,2.31,3.37Z"/><path d="M291.07,309.94c-9.24,0-17.66-1.67-25.27-4.97-7.58-3.32-14.09-8.04-19.52-14.19-5.41-6.14-9.54-13.47-12.37-21.95l24.72-9.3c1.15-.43,2.39,.11,2.95,1.19,3.06,5.89,7.06,10.78,11.99,14.68,5.46,4.31,11.53,6.47,18.22,6.47s12.44-1.38,16.57-4.15c4.15-2.76,6.22-6.76,6.22-12.02,0-3.59-1.21-6.56-3.62-8.9-2.41-2.34-5.73-4.4-9.94-6.17-4.21-1.75-9.03-3.54-14.5-5.33-5.38-1.8-10.84-3.78-16.37-5.95-5.51-2.17-10.58-4.89-15.22-8.14-4.62-3.24-8.33-7.37-11.12-12.37-2.8-5.01-4.2-11.19-4.2-18.59s1.96-14.02,5.85-20.14c3.89-6.1,9.56-10.99,16.99-14.65,7.42-3.66,16.4-5.49,26.97-5.49,8.7,0,16.43,1.53,23.19,4.62,6.78,3.07,12.37,7.23,16.79,12.47,4.42,5.24,7.52,11.14,9.32,17.71l-26.51,8.8c-2.01-4.42-4.89-8.11-8.65-11.09-3.78-2.97-9-4.45-15.69-4.45-5.93,0-10.52,1.1-13.72,3.27-3.22,2.17-4.82,5.33-4.82,9.47,0,2.7,1.1,4.99,3.27,6.89,2.17,1.89,5.17,3.61,9,5.12,3.84,1.52,8.24,3.14,13.21,4.85,5.93,2.01,11.83,4.21,17.7,6.64,5.87,2.41,11.21,5.38,16,8.9,4.8,3.52,8.63,7.9,11.5,13.15,2.87,5.26,4.3,11.75,4.3,19.47,0,9.32-2.34,17.26-7.03,23.82-4.7,6.57-11.07,11.6-19.11,15.07-8.04,3.49-17.07,5.24-27.09,5.24Z"/><path d="M382.42,304.97v-111.45c0-1.37-1.11-2.47-2.47-2.47h-36.48c-1.37,0-2.47-1.11-2.47-2.47v-23.62c0-1.37,1.11-2.47,2.47-2.47h107.83c1.37,0,2.47,1.11,2.47,2.47v23.62c0,1.37-1.11,2.47-2.47,2.47h-36.58c-1.37,0-2.47,1.11-2.47,2.47v111.45c0,1.37-1.11,2.47-2.47,2.47h-24.87c-1.37,0-2.47-1.11-2.47-2.47Z"/><path d="M460.68,304.97V164.95c0-1.37,1.11-2.47,2.47-2.47h24.88c1.37,0,2.47,1.11,2.47,2.47v140.02c0,1.37-1.11,2.47-2.47,2.47h-24.88c-1.37,0-2.47-1.11-2.47-2.47Z"/><path d="M506.98,304.97V164.95c0-1.37,1.11-2.47,2.47-2.47h24.88c1.37,0,2.47,1.11,2.47,2.47v111.23c0,1.37,1.11,2.47,2.47,2.47h64.75c1.37,0,2.47,1.11,2.47,2.47v23.84c0,1.37-1.11,2.47-2.47,2.47h-94.58c-1.37,0-2.47-1.11-2.47-2.47Z"/><path d="M609.19,304.97V164.95c0-1.37,1.11-2.47,2.47-2.47h24.88c1.37,0,2.47,1.11,2.47,2.47v111.23c0,1.37,1.11,2.47,2.47,2.47h64.75c1.37,0,2.47,1.11,2.47,2.47v23.84c0,1.37-1.11,2.47-2.47,2.47h-94.58c-1.37,0-2.47-1.11-2.47-2.47Z"/><path d="M769.84,309.94c-11.6,0-21.47-2.19-29.63-6.57-8.14-4.4-14.71-10.23-19.72-17.51-5.01-7.28-8.66-15.34-10.97-24.17-2.31-8.85-3.47-17.75-3.47-26.73s1.16-17.87,3.47-26.72c2.31-8.83,5.97-16.89,10.97-24.17,5.01-7.28,11.58-13.13,19.72-17.51,8.16-4.38,18.03-6.57,29.63-6.57s21.64,2.19,29.72,6.57c8.07,4.38,14.61,10.23,19.62,17.51,5.01,7.28,8.65,15.34,10.92,24.17,2.29,8.85,3.42,17.75,3.42,26.72s-1.13,17.88-3.42,26.73c-2.28,8.83-5.92,16.89-10.92,24.17-5.01,7.28-11.55,13.11-19.62,17.51-8.07,4.38-17.98,6.57-29.72,6.57Zm0-28.79c6.07,0,11.19-1.42,15.37-4.25,4.18-2.83,7.55-6.57,10.1-11.24,2.56-4.65,4.42-9.67,5.6-15.07,1.16-5.38,1.75-10.6,1.75-15.64,0-5.38-.56-10.8-1.65-16.25-1.11-5.46-2.92-10.47-5.44-15.02-2.51-4.55-5.88-8.21-10.1-10.97-4.2-2.76-9.42-4.15-15.62-4.15s-11.43,1.43-15.64,4.3c-4.21,2.87-7.6,6.61-10.15,11.24-2.56,4.62-4.38,9.66-5.49,15.12-1.1,5.44-1.65,10.7-1.65,15.73,0,5.33,.57,10.69,1.7,16.11,1.15,5.41,3,10.4,5.6,14.97,2.6,4.55,5.98,8.21,10.2,10.97,4.21,2.76,9.35,4.15,15.44,4.15Z"/><rect class="d" x="776.23" y="116.84" width="27.45" height="27.45" rx=".07" ry=".07"/></g></g></g></svg>